<svg width="570" height="523" viewBox="0 0 570 523" fill="none" xmlns="http://www.w3.org/2000/svg">
<path d="M284.76 0.000930297C338.08 -0.128513 390.368 13.2527 435.658 38.6182C480.949 63.9838 517.419 100.312 540.908 143.46C564.398 186.608 573.961 234.839 568.508 282.65C563.055 330.461 542.804 375.928 510.066 413.865L548.99 496.267C550.493 499.448 551.016 502.937 550.502 506.364C549.988 509.791 548.458 513.03 546.072 515.738C543.686 518.446 540.533 520.523 536.946 521.75C533.359 522.977 529.471 523.309 525.692 522.709L378.164 499.468C339.036 511.687 297.424 516.071 256.225 512.314C215.025 508.557 175.23 496.749 139.61 477.714C103.99 458.679 73.4017 432.873 49.975 402.095C26.5484 371.316 10.8467 336.304 3.96348 299.497C-2.91971 262.69 -0.818929 224.973 10.1195 188.972C21.058 152.972 40.5712 119.553 67.3001 91.0445C94.029 62.5356 127.331 39.6214 164.887 23.8979C202.443 8.17434 243.35 0.0193711 284.76 0.000930297ZM284.76 475.33C313.473 475.306 341.952 470.666 368.859 461.629C372.399 460.451 376.223 460.141 379.939 460.732L494.439 478.788L466.027 418.283C464.48 414.997 463.979 411.387 464.582 407.858C465.184 404.329 466.865 401.022 469.437 398.307C505.207 360.419 525.549 312.655 527.095 262.923C528.64 213.192 511.297 164.477 477.936 124.843C444.575 85.2088 397.198 57.0338 343.649 44.9827C290.1 32.9316 233.59 37.7273 183.477 58.5758C133.365 79.4242 92.6538 115.075 68.0859 159.625C43.518 204.175 36.5664 254.953 48.3823 303.55C60.1981 352.147 90.0726 395.649 133.059 426.854C176.046 458.058 229.567 475.093 284.76 475.138V475.33Z" fill="black"/>
</svg>
