<svg width="550" height="501" viewBox="0 0 550 501" fill="none" xmlns="http://www.w3.org/2000/svg">
<path d="M274.955 500.982H272.492C269.031 500.363 265.814 498.746 263.217 496.32C260.621 493.894 258.754 490.76 257.834 487.285L207.702 207.424L6.18743 31.264C3.37145 28.9189 1.37459 25.7002 0.497163 22.092C-0.380261 18.4837 -0.0907976 14.6811 1.32201 11.2559C2.37876 7.85446 4.50485 4.90739 7.36831 2.87489C10.2318 0.842384 13.6714 -0.161122 17.15 0.0210676H532.576C535.552 0.019571 538.475 0.824464 541.049 2.35414C543.623 3.88381 545.757 6.08386 547.234 8.73123C549.032 11.2735 550 14.3331 550 17.473C550 20.6128 549.032 23.6724 547.234 26.2147L289.552 492.271C288.199 495.013 286.101 497.294 283.511 498.84C280.921 500.385 277.949 501.129 274.955 500.982V500.982ZM64.8803 33.915L235.786 182.43C238.949 184.88 241.137 188.424 241.944 192.402L284.686 431.048L504.554 33.7256L64.8803 33.915Z" fill="black"/>
<path d="M225.668 218.448C222.732 218.338 219.881 217.414 217.42 215.773C214.959 214.133 212.981 211.838 211.698 209.136C209.493 205.321 208.782 200.794 209.707 196.464C210.631 192.134 213.123 188.323 216.683 185.794L218.16 184.913L521.068 7.29519C522.961 6.16822 525.06 5.45217 527.236 5.19172C529.411 4.93128 531.616 5.13203 533.712 5.78145C535.808 6.43087 537.751 7.51503 539.419 8.96625C541.087 10.4175 542.445 12.2046 543.408 14.2162C545.551 18.3048 546.108 23.0693 544.967 27.5592C543.827 32.049 541.072 35.9342 537.253 38.4396L233.668 217.441C231.084 218.273 228.373 218.614 225.668 218.448Z" fill="black"/>
</svg>
