<svg width="1068" height="1098" viewBox="0 0 1068 1098" fill="none" xmlns="http://www.w3.org/2000/svg">
<path d="M610.25 412C610.25 379.523 635.851 353.2 667.438 353.2C699.024 353.2 724.625 379.523 724.625 412C724.625 444.477 699.024 470.8 667.438 470.8C635.851 470.8 610.25 444.477 610.25 412ZM1067.75 549.2C1067.75 852.294 828.782 1098 534 1098C239.218 1098 0.25 852.294 0.25 549.2C0.25 246.106 239.218 0.400024 534 0.400024C828.782 0.400024 1067.75 246.106 1067.75 549.2ZM991.5 549.2C991.5 289.814 786.273 78.8 534 78.8C281.727 78.8 76.5 289.814 76.5 549.2C76.5 808.586 281.727 1019.6 534 1019.6C786.273 1019.6 991.5 808.586 991.5 549.2ZM381.5 470.8C413.087 470.8 438.688 444.477 438.688 412C438.688 379.523 413.087 353.2 381.5 353.2C349.913 353.2 324.312 379.523 324.312 412C324.312 444.477 349.913 470.8 381.5 470.8ZM534 764.8C418.386 764.8 324.312 676.874 324.312 568.8H248.062C248.062 720.112 376.334 843.2 534 843.2C691.666 843.2 819.938 720.112 819.938 568.8H743.688C743.688 676.874 649.614 764.8 534 764.8Z" fill="black"/>
</svg>
