<svg width="460" height="460" viewBox="0 0 460 460" fill="none" xmlns="http://www.w3.org/2000/svg">
<path d="M199.874 176.205L191.951 178.525L188.703 186.115L145.911 286.115L130.204 322.822L167.841 309.497L261.049 276.497L268.142 273.985L271.199 267.109L312.991 173.109L328.338 138.589L292.082 149.205L199.874 176.205ZM18.3334 230C18.3334 113.165 113.165 18.3333 230 18.3333C346.835 18.3333 441.667 113.165 441.667 230C441.667 346.835 346.835 441.667 230 441.667C113.165 441.667 18.3334 346.835 18.3334 230Z" stroke="black" stroke-width="35"/>
<path d="M204.441 192.457L258.443 260.16L158 300.5L204.441 192.457Z" fill="black"/>
</svg>
