<svg width="459" height="421" viewBox="0 0 459 421" fill="none" xmlns="http://www.w3.org/2000/svg">
<path d="M207.718 377.33L207.706 377.319L207.693 377.307C148.33 323.477 100.479 280.045 67.2568 239.428C34.236 199.057 17.5 163.606 17.5 126.042C17.5 65.1233 65.1233 17.5 126.042 17.5C160.618 17.5 194.077 33.6814 215.843 59.2418L229.167 74.8879L242.49 59.2418C264.257 33.6814 297.715 17.5 332.292 17.5C393.21 17.5 440.833 65.1233 440.833 126.042C440.833 163.606 424.097 199.058 391.073 239.461C357.85 280.107 310.001 323.593 250.642 377.535C250.637 377.539 250.632 377.544 250.627 377.549L229.211 396.896L207.718 377.33Z" stroke="black" stroke-width="35"/>
</svg>
