<svg width="610" height="624" viewBox="0 0 610 624" fill="none" xmlns="http://www.w3.org/2000/svg">
<path d="M305.257 0.00110995C248.195 -0.153331 192.238 15.812 143.769 46.076C95.3006 76.3401 56.2713 119.684 31.1333 171.165C5.99524 222.646 -4.23947 280.19 1.59655 337.234C7.43258 394.278 29.1044 448.526 64.14 493.789L22.4841 592.104C20.8755 595.9 20.3166 600.063 20.8664 604.151C21.4161 608.24 23.0542 612.104 25.6076 615.335C28.1611 618.567 31.5352 621.045 35.3738 622.509C39.2124 623.973 43.3732 624.368 47.4168 623.653L205.298 595.924C247.172 610.502 291.705 615.732 335.795 611.25C379.885 606.767 422.473 592.68 460.593 569.969C498.712 547.257 531.447 516.468 556.518 479.746C581.589 443.023 598.392 401.25 605.758 357.335C613.125 313.42 610.876 268.419 599.17 225.466C587.464 182.513 566.582 142.641 537.977 108.627C509.373 74.6122 473.733 47.273 433.542 28.513C393.35 9.75294 349.573 0.023112 305.257 0.00110995ZM305.257 567.124C274.529 567.095 244.051 561.56 215.256 550.777C211.468 549.371 207.375 549.002 203.398 549.707L80.8631 571.249L111.269 499.06C112.925 495.139 113.461 490.832 112.816 486.622C112.172 482.412 110.372 478.466 107.62 475.227C69.3398 430.021 47.5704 373.033 45.9163 313.698C44.2622 254.363 62.8227 196.24 98.5246 148.952C134.226 101.664 184.928 68.048 242.235 53.6696C299.542 39.2913 360.017 45.0131 413.647 69.8877C467.277 94.7624 510.844 137.298 537.136 190.451C563.428 243.605 570.867 304.188 558.222 362.17C545.577 420.153 513.606 472.056 467.603 509.286C421.6 546.517 364.323 566.842 305.257 566.895V567.124Z" fill="black"/>
<path d="M362.758 428.367L266.599 363.328L103.646 428.367L258.389 200.444L354.371 269.949L520.27 212.457L362.758 428.367ZM221.824 333.864L269.113 307.54L352.976 364.509L395.708 301.469L350.471 319L266.462 259.319L221.824 333.864Z" fill="black"/>
</svg>
